<mxfile host="app.diagrams.net" modified="2022-10-28T05:59:16.397Z" agent="5.0 (Windows NT 10.0; Win64; x64) AppleWebKit/537.36 (KHTML, like Gecko) Chrome/106.0.0.0 Safari/537.36" etag="uHfxCJbKEuhZTnSGzoX1" version="20.5.1" type="github">
  <diagram id="ltZaFYKNWxx-_zTZXcd2" name="第 1 页">
    <mxGraphModel dx="1422" dy="754" grid="1" gridSize="10" guides="1" tooltips="1" connect="1" arrows="1" fold="1" page="1" pageScale="1" pageWidth="827" pageHeight="1169" math="0" shadow="0">
      <root>
        <mxCell id="0" />
        <mxCell id="1" parent="0" />
        <mxCell id="1L7n8RDa65ZMf8J-9hku-1" value="" style="rounded=0;whiteSpace=wrap;html=1;" parent="1" vertex="1">
          <mxGeometry x="30" y="140" width="680" height="550" as="geometry" />
        </mxCell>
        <mxCell id="1L7n8RDa65ZMf8J-9hku-2" value="" style="rounded=0;whiteSpace=wrap;html=1;" parent="1" vertex="1">
          <mxGeometry x="710" y="140" width="190" height="550" as="geometry" />
        </mxCell>
        <mxCell id="1L7n8RDa65ZMf8J-9hku-4" value="标题" style="text;html=1;strokeColor=none;fillColor=none;align=center;verticalAlign=middle;whiteSpace=wrap;rounded=0;" parent="1" vertex="1">
          <mxGeometry x="720" y="230" width="60" height="30" as="geometry" />
        </mxCell>
        <mxCell id="1L7n8RDa65ZMf8J-9hku-6" value="根节点" style="rounded=0;whiteSpace=wrap;html=1;align=left;" parent="1" vertex="1">
          <mxGeometry x="770" y="230" width="120" height="25" as="geometry" />
        </mxCell>
        <mxCell id="1L7n8RDa65ZMf8J-9hku-7" value="xxxxxxx" style="rounded=0;whiteSpace=wrap;html=1;align=left;" parent="1" vertex="1">
          <mxGeometry x="770" y="270" width="120" height="25" as="geometry" />
        </mxCell>
        <mxCell id="1L7n8RDa65ZMf8J-9hku-8" value="文本描述" style="text;html=1;strokeColor=none;fillColor=none;align=center;verticalAlign=middle;whiteSpace=wrap;rounded=0;" parent="1" vertex="1">
          <mxGeometry x="710" y="270" width="60" height="30" as="geometry" />
        </mxCell>
        <mxCell id="1L7n8RDa65ZMf8J-9hku-83" value="图片" style="text;html=1;strokeColor=none;fillColor=none;align=center;verticalAlign=middle;whiteSpace=wrap;rounded=0;" parent="1" vertex="1">
          <mxGeometry x="720" y="325" width="60" height="30" as="geometry" />
        </mxCell>
        <mxCell id="1L7n8RDa65ZMf8J-9hku-84" value="上传" style="rounded=0;whiteSpace=wrap;html=1;" parent="1" vertex="1">
          <mxGeometry x="770" y="325" width="60" height="60" as="geometry" />
        </mxCell>
        <mxCell id="1L7n8RDa65ZMf8J-9hku-85" value="视频" style="text;html=1;strokeColor=none;fillColor=none;align=center;verticalAlign=middle;whiteSpace=wrap;rounded=0;" parent="1" vertex="1">
          <mxGeometry x="720" y="405" width="60" height="30" as="geometry" />
        </mxCell>
        <mxCell id="1L7n8RDa65ZMf8J-9hku-86" value="上传" style="rounded=0;whiteSpace=wrap;html=1;" parent="1" vertex="1">
          <mxGeometry x="770" y="410" width="60" height="25" as="geometry" />
        </mxCell>
        <mxCell id="1L7n8RDa65ZMf8J-9hku-87" value="文件" style="text;html=1;strokeColor=none;fillColor=none;align=center;verticalAlign=middle;whiteSpace=wrap;rounded=0;" parent="1" vertex="1">
          <mxGeometry x="720" y="445" width="60" height="30" as="geometry" />
        </mxCell>
        <mxCell id="1L7n8RDa65ZMf8J-9hku-88" value="上传" style="rounded=0;whiteSpace=wrap;html=1;" parent="1" vertex="1">
          <mxGeometry x="770" y="447.5" width="60" height="25" as="geometry" />
        </mxCell>
        <mxCell id="1L7n8RDa65ZMf8J-9hku-89" value="" style="endArrow=none;dashed=1;html=1;rounded=0;entryX=1.016;entryY=0.098;entryDx=0;entryDy=0;entryPerimeter=0;exitX=1.003;exitY=0.098;exitDx=0;exitDy=0;exitPerimeter=0;" parent="1" source="1L7n8RDa65ZMf8J-9hku-1" target="1L7n8RDa65ZMf8J-9hku-2" edge="1">
          <mxGeometry width="50" height="50" relative="1" as="geometry">
            <mxPoint x="390" y="410" as="sourcePoint" />
            <mxPoint x="440" y="360" as="targetPoint" />
          </mxGeometry>
        </mxCell>
        <mxCell id="1L7n8RDa65ZMf8J-9hku-90" value="&lt;font style=&quot;font-size: 14px;&quot;&gt;新增引导树节点&lt;/font&gt;" style="text;html=1;strokeColor=none;fillColor=none;align=center;verticalAlign=middle;whiteSpace=wrap;rounded=0;" parent="1" vertex="1">
          <mxGeometry x="730" y="150" width="110" height="30" as="geometry" />
        </mxCell>
        <mxCell id="4sm7L-_X679fNM8iSBi2-4" value="" style="edgeStyle=orthogonalEdgeStyle;rounded=0;orthogonalLoop=1;jettySize=auto;html=1;exitX=1;exitY=0.5;exitDx=0;exitDy=0;" edge="1" parent="1" source="4sm7L-_X679fNM8iSBi2-1" target="4sm7L-_X679fNM8iSBi2-3">
          <mxGeometry relative="1" as="geometry">
            <Array as="points">
              <mxPoint x="190" y="340" />
              <mxPoint x="190" y="240" />
            </Array>
          </mxGeometry>
        </mxCell>
        <mxCell id="4sm7L-_X679fNM8iSBi2-7" style="edgeStyle=orthogonalEdgeStyle;rounded=0;orthogonalLoop=1;jettySize=auto;html=1;entryX=0;entryY=0.5;entryDx=0;entryDy=0;" edge="1" parent="1" source="4sm7L-_X679fNM8iSBi2-1" target="4sm7L-_X679fNM8iSBi2-5">
          <mxGeometry relative="1" as="geometry">
            <Array as="points">
              <mxPoint x="190" y="340" />
              <mxPoint x="190" y="430" />
            </Array>
          </mxGeometry>
        </mxCell>
        <mxCell id="4sm7L-_X679fNM8iSBi2-15" style="edgeStyle=orthogonalEdgeStyle;rounded=0;orthogonalLoop=1;jettySize=auto;html=1;entryX=0;entryY=0.5;entryDx=0;entryDy=0;" edge="1" parent="1" source="4sm7L-_X679fNM8iSBi2-1" target="4sm7L-_X679fNM8iSBi2-14">
          <mxGeometry relative="1" as="geometry">
            <Array as="points">
              <mxPoint x="190" y="340" />
              <mxPoint x="190" y="555" />
            </Array>
          </mxGeometry>
        </mxCell>
        <mxCell id="4sm7L-_X679fNM8iSBi2-1" value="如何用电脑连接登录设备" style="rounded=0;whiteSpace=wrap;html=1;fillColor=#d5e8d4;strokeColor=#82b366;" vertex="1" parent="1">
          <mxGeometry x="40" y="310" width="120" height="60" as="geometry" />
        </mxCell>
        <mxCell id="4sm7L-_X679fNM8iSBi2-9" value="" style="edgeStyle=orthogonalEdgeStyle;rounded=0;orthogonalLoop=1;jettySize=auto;html=1;" edge="1" parent="1" source="4sm7L-_X679fNM8iSBi2-3" target="4sm7L-_X679fNM8iSBi2-8">
          <mxGeometry relative="1" as="geometry">
            <Array as="points">
              <mxPoint x="360" y="240" />
              <mxPoint x="360" y="200" />
            </Array>
          </mxGeometry>
        </mxCell>
        <mxCell id="4sm7L-_X679fNM8iSBi2-17" value="" style="edgeStyle=orthogonalEdgeStyle;rounded=0;orthogonalLoop=1;jettySize=auto;html=1;" edge="1" parent="1" source="4sm7L-_X679fNM8iSBi2-3" target="4sm7L-_X679fNM8iSBi2-16">
          <mxGeometry relative="1" as="geometry">
            <Array as="points">
              <mxPoint x="360" y="240" />
              <mxPoint x="360" y="280" />
            </Array>
          </mxGeometry>
        </mxCell>
        <mxCell id="4sm7L-_X679fNM8iSBi2-3" value="操作：InDTU311/331&lt;br&gt;节点：连接物理串口" style="whiteSpace=wrap;html=1;rounded=0;align=left;" vertex="1" parent="1">
          <mxGeometry x="220" y="210" width="120" height="60" as="geometry" />
        </mxCell>
        <mxCell id="4sm7L-_X679fNM8iSBi2-11" value="" style="edgeStyle=orthogonalEdgeStyle;rounded=0;orthogonalLoop=1;jettySize=auto;html=1;" edge="1" parent="1" source="4sm7L-_X679fNM8iSBi2-5" target="4sm7L-_X679fNM8iSBi2-10">
          <mxGeometry relative="1" as="geometry">
            <Array as="points">
              <mxPoint x="360" y="430" />
              <mxPoint x="360" y="400" />
            </Array>
          </mxGeometry>
        </mxCell>
        <mxCell id="4sm7L-_X679fNM8iSBi2-13" value="" style="edgeStyle=orthogonalEdgeStyle;rounded=0;orthogonalLoop=1;jettySize=auto;html=1;" edge="1" parent="1" source="4sm7L-_X679fNM8iSBi2-5" target="4sm7L-_X679fNM8iSBi2-12">
          <mxGeometry relative="1" as="geometry">
            <Array as="points">
              <mxPoint x="360" y="430" />
              <mxPoint x="360" y="480" />
            </Array>
          </mxGeometry>
        </mxCell>
        <mxCell id="4sm7L-_X679fNM8iSBi2-5" value="操作：InDTU311/332&lt;br&gt;节点：连接物理串口" style="whiteSpace=wrap;html=1;rounded=0;align=left;" vertex="1" parent="1">
          <mxGeometry x="220" y="400" width="120" height="60" as="geometry" />
        </mxCell>
        <mxCell id="4sm7L-_X679fNM8iSBi2-19" value="" style="edgeStyle=orthogonalEdgeStyle;rounded=0;orthogonalLoop=1;jettySize=auto;html=1;" edge="1" parent="1" source="4sm7L-_X679fNM8iSBi2-8" target="4sm7L-_X679fNM8iSBi2-18">
          <mxGeometry relative="1" as="geometry" />
        </mxCell>
        <mxCell id="4sm7L-_X679fNM8iSBi2-8" value="操作：串口线正取连接&lt;br&gt;节点：配置串口号及串口参数" style="whiteSpace=wrap;html=1;align=left;rounded=0;" vertex="1" parent="1">
          <mxGeometry x="390" y="170" width="120" height="60" as="geometry" />
        </mxCell>
        <mxCell id="4sm7L-_X679fNM8iSBi2-10" value="操作：步骤3&lt;br&gt;节点：xxxxx" style="whiteSpace=wrap;html=1;align=left;rounded=0;" vertex="1" parent="1">
          <mxGeometry x="390" y="370" width="120" height="60" as="geometry" />
        </mxCell>
        <mxCell id="4sm7L-_X679fNM8iSBi2-21" value="" style="edgeStyle=orthogonalEdgeStyle;rounded=0;orthogonalLoop=1;jettySize=auto;html=1;" edge="1" parent="1" source="4sm7L-_X679fNM8iSBi2-12" target="4sm7L-_X679fNM8iSBi2-20">
          <mxGeometry relative="1" as="geometry" />
        </mxCell>
        <mxCell id="4sm7L-_X679fNM8iSBi2-12" value="操作：步骤4&lt;br&gt;节点：xxxxxx" style="whiteSpace=wrap;html=1;align=left;rounded=0;" vertex="1" parent="1">
          <mxGeometry x="390" y="445" width="120" height="60" as="geometry" />
        </mxCell>
        <mxCell id="4sm7L-_X679fNM8iSBi2-14" value="操作：InDTU311/352&lt;br&gt;节点：连接物理串口" style="whiteSpace=wrap;html=1;rounded=0;align=left;" vertex="1" parent="1">
          <mxGeometry x="220" y="525" width="120" height="60" as="geometry" />
        </mxCell>
        <mxCell id="4sm7L-_X679fNM8iSBi2-16" value="操作：无物理串口线&lt;br&gt;节点：获取物理串口线" style="whiteSpace=wrap;html=1;align=left;rounded=0;" vertex="1" parent="1">
          <mxGeometry x="390" y="250" width="120" height="60" as="geometry" />
        </mxCell>
        <mxCell id="4sm7L-_X679fNM8iSBi2-18" value="操作：已准备好所有串口线&lt;br&gt;节点：第一步" style="whiteSpace=wrap;html=1;align=left;rounded=0;fillColor=#ffe6cc;strokeColor=#d79b00;" vertex="1" parent="1">
          <mxGeometry x="560" y="170" width="110" height="60" as="geometry" />
        </mxCell>
        <mxCell id="4sm7L-_X679fNM8iSBi2-20" value="操作：步骤5&lt;br&gt;节点：第二步" style="whiteSpace=wrap;html=1;align=left;rounded=0;fillColor=#ffe6cc;strokeColor=#d79b00;" vertex="1" parent="1">
          <mxGeometry x="560" y="445" width="120" height="60" as="geometry" />
        </mxCell>
      </root>
    </mxGraphModel>
  </diagram>
</mxfile>
